<?xml version="1.0" encoding="UTF-8" standalone="no"?>
<svg
   xmlns:dc="http://purl.org/dc/elements/1.1/"
   xmlns:cc="http://creativecommons.org/ns#"
   xmlns:rdf="http://www.w3.org/1999/02/22-rdf-syntax-ns#"
   xmlns:svg="http://www.w3.org/2000/svg"
   xmlns="http://www.w3.org/2000/svg"
   xmlns:sodipodi="http://sodipodi.sourceforge.net/DTD/sodipodi-0.dtd"
   xmlns:inkscape="http://www.inkscape.org/namespaces/inkscape"
   viewBox="0 0 16 16"
   id="svg2"
   version="1.1"
   inkscape:version="0.91 r13725"
   sodipodi:docname="rectangle.svg">
  <metadata
     id="metadata18">
    <rdf:RDF>
      <cc:Work
         rdf:about="">
        <dc:format>image/svg+xml</dc:format>
        <dc:type
           rdf:resource="http://purl.org/dc/dcmitype/StillImage" />
      </cc:Work>
    </rdf:RDF>
  </metadata>
  <sodipodi:namedview
     pagecolor="#ffffff"
     bordercolor="#666666"
     borderopacity="1"
     objecttolerance="10"
     gridtolerance="10"
     guidetolerance="10"
     inkscape:pageopacity="0"
     inkscape:pageshadow="2"
     inkscape:window-width="1234"
     inkscape:window-height="735"
     id="namedview16"
     showgrid="false"
     inkscape:zoom="29.5"
     inkscape:cx="8.3175055"
     inkscape:cy="6.7203023"
     inkscape:window-x="59"
     inkscape:window-y="35"
     inkscape:window-maximized="0"
     inkscape:current-layer="svg2" />
  <defs
     id="defs4" />
  <rect
     id="rect8"
     style="fill:#268bd2"
     height="14"
     rx="2.154"
     y="0.99996054"
     x="1"
     width="14" />
  <g
     id="g10"
     style="fill:#ffffff;fill-opacity:0.9"
     transform="translate(0,-1036.3621)">
    <path
       inkscape:connector-curvature="0"
       id="path14"
       d="m 3,1039.3621 0,10 10,0 0,-10 -10,0 z m 1.6666667,1.6667 6.6666663,0 0,6.6666 -6.6666663,0 0,-6.6666 z" />
  </g>
  <path
     inkscape:connector-curvature="0"
     d="m 2.3389835,2.3559322 0,3 3,0 0,-3 z m 1,1 1,0 0,1 -1,0 z"
     style="opacity:1;fill:#888888;fill-opacity:1;stroke:none"
     id="path6" />
  <path
     inkscape:connector-curvature="0"
     d="m -12.050847,12.644068 0,3 3,0 0,-3 z m 1,1 1,0 0,1 -1,0 z"
     style="opacity:1;fill:#888888;fill-opacity:1;stroke:none"
     id="path8" />
  <path
     inkscape:connector-curvature="0"
     d="m 10.601692,10.635593 0,3 3,0 0,-3 z m 1,1 1,0 0,1 -1,0 z"
     style="opacity:1;fill:#888888;fill-opacity:1;stroke:none"
     id="path6-6" />
</svg>
