<?xml version="1.0" encoding="UTF-8" standalone="no"?>
<svg
   xmlns:dc="http://purl.org/dc/elements/1.1/"
   xmlns:cc="http://creativecommons.org/ns#"
   xmlns:rdf="http://www.w3.org/1999/02/22-rdf-syntax-ns#"
   xmlns:svg="http://www.w3.org/2000/svg"
   xmlns="http://www.w3.org/2000/svg"
   xmlns:sodipodi="http://sodipodi.sourceforge.net/DTD/sodipodi-0.dtd"
   xmlns:inkscape="http://www.inkscape.org/namespaces/inkscape"
   viewBox="0 0 16 16"
   id="svg2"
   version="1.1"
   inkscape:version="0.91 r13725"
   sodipodi:docname="select.svg">
  <metadata
     id="metadata18">
    <rdf:RDF>
      <cc:Work
         rdf:about="">
        <dc:format>image/svg+xml</dc:format>
        <dc:type
           rdf:resource="http://purl.org/dc/dcmitype/StillImage" />
      </cc:Work>
    </rdf:RDF>
  </metadata>
  <sodipodi:namedview
     pagecolor="#ffffff"
     bordercolor="#666666"
     borderopacity="1"
     objecttolerance="10"
     gridtolerance="10"
     guidetolerance="10"
     inkscape:pageopacity="0"
     inkscape:pageshadow="2"
     inkscape:window-width="1042"
     inkscape:window-height="759"
     id="namedview16"
     showgrid="false"
     inkscape:zoom="20.85965"
     inkscape:cx="10.045288"
     inkscape:cy="6.7291413"
     inkscape:window-x="266"
     inkscape:window-y="52"
     inkscape:window-maximized="0"
     inkscape:current-layer="svg2" />
  <defs
     id="defs4" />
  <g
     transform="translate(0 -1036.3622)"
     id="g6">
    <rect
       width="14"
       x="1"
       y="1037.362"
       rx="2.154"
       height="14"
       style="fill:#268bd2"
       id="rect8" />
    <g
       style="fill-opacity:.9;fill:#fff"
       id="g10">
      <path
         style="color:#000000"
         d="m 2.5445755,1038.9067 0,4.3643 1.0910849,0 0,-3.2732 3.2732549,0 0,-1.0911 -4.3643398,0 z m 6.5465096,0 0,1.0911 3.2732549,0 0,3.2732 1.091084,0 0,-4.3643 -4.3643389,0 z m -6.5465096,6.5465 0,4.3643 4.3643398,0 0,-1.091 -3.2732549,0 0,-3.2733 -1.0910849,0 z m 9.8197645,0 0,3.2733 -3.2732549,0 0,1.091 4.3643399,0 0,-4.3643 -1.091085,0 z"
         id="path12"
         inkscape:connector-curvature="0" />
      <path
         d="M 5 5 L 5 11 L 11 11 L 11 5 L 5 5 z M 6 6 L 10 6 L 10 10 L 6 10 L 6 6 z "
         transform="translate(0 1036.3622)"
         id="path14" />
    </g>
  </g>
</svg>
