/* XPM */
char const *close.xpm[] = {
/* columns rows colors chars-per-pixel */
"22 22 6 1 ",
"  c #DB312F",
". c #DC322F",
"X c #DB3230",
"o c #DD3130",
"O c #DC3230",
"+ c None",
/* pixels */
"++++++++++++++++++++++",
"++++++++++++++++++++++",
"++++++++++++++++++++++",
"++++++++++++++++++++++",
"++++++++++++++++++++++",
"++++++O++++++++ ++++++",
"++++++..++++++..O+++++",
"++++++...++++...++++++",
"+++++++...++...+++++++",
"++++++++......++++++++",
"+++++++++....+++++++++",
"+++++++++....+++++++++",
"++++++++......++++++++",
"+++++++...++...+++++++",
"++++++...++++...++++++",
"+++++O..++++++..O+++++",
"++++++.++++++++ ++++++",
"++++++++++++++++++++++",
"++++++++++++++++++++++",
"++++++++++++++++++++++",
"++++++++++++++++++++++",
"++++++++++++++++++++++"
};
