/* XPM */
char const *help.xpm[] = {
/* columns rows colors chars-per-pixel */
"22 22 50 1 ",
"  c #268BD1",
". c #268AD2",
"X c #268BD2",
"o c #278BD2",
"O c #268CD3",
"+ c #298CD3",
"@ c #298DD3",
"# c #2F90D4",
"$ c #3191D4",
"% c #3794D6",
"& c #3995D6",
"* c #419AD8",
"= c #439AD8",
"- c #459BD8",
"; c #4A9ED9",
": c #50A1DB",
"> c #55A4DC",
", c #58A6DC",
"< c #63ACDF",
"1 c #6DB1E1",
"2 c #70B3E1",
"3 c #71B3E2",
"4 c #73B4E2",
"5 c #82BCE5",
"6 c #84BDE5",
"7 c #88BFE6",
"8 c #8CC2E7",
"9 c #90C3E8",
"0 c #9DCBEB",
"q c #A1CDEC",
"w c #A4CEEC",
"e c #A9D1ED",
"r c #B6D8F0",
"t c #BDDCF1",
"y c #BFDDF2",
"u c #C4E0F3",
"i c #C7E1F3",
"p c #C9E2F4",
"a c #CAE3F4",
"s c #CEE5F5",
"d c #D1E6F5",
"f c #D3E7F6",
"g c #D4E8F6",
"h c #D5E9F6",
"j c #DAEBF7",
"k c #DDEDF8",
"l c #E2F0F9",
"z c #E5F1FA",
"x c #EAF4FB",
"c c None",
/* pixels */
"ccccccccXXXXXXcccccccc",
"ccccccXXXXXXXXXXcccccc",
"ccccXXXXXXXXXXXXXXcccc",
"cccXXXXXXXXXXXXXXXXccc",
"ccXXXXXXXXXXXXXXXXXXcc",
"ccXXXXXX$>12,@XXXXXXcc",
"cXXXXX@qlxxxxs;XXXXXXc",
"cXXXXXXqxuwezxd+XXXXXc",
"XXXXXXX&=X+X9xx&XXXXXX",
"XXXXXXXXXX@@txj@XXXXXX",
"XXXXXXXXX+*ixz<XXXXXXX",
"XXXXXXXXX=kxd:XXXXXXXX",
"XXXXXXXXX0xh&XXXXXXXXX",
"XXXXXXXXX8r7XXXXXXXXXX",
"cXXXXXXXXX+XXXXXXXXXXc",
"cXXXXXXXX6a2XXXXXXXXXc",
"ccXXXXXXXgxyXXXXXXXXcc",
"ccXXXXXXX5p2XXXXXXXOcc",
"cccXXXXXXXXXXXXXXXXccc",
"ccccOXXXXXXXXXXXXXcccc",
"ccccccXXXXXXXXXXcccccc",
"ccccccccXXXXXXcccccccc"
};
