/* XPM */
char const *load_net.xpm[] = {
/* columns rows colors chars-per-pixel */
"22 22 65 1 ",
"  c #01017F",
". c #02017F",
"X c #08057D",
"o c #0D097B",
"O c #1A1177",
"+ c #2D1E6C",
"@ c #2F1F6F",
"# c #211674",
"$ c #251873",
"% c #2E1E70",
"& c #613F55",
"* c #452D67",
"= c #4B3165",
"- c #543760",
"; c #543763",
": c #593A60",
"> c #684452",
", c #6E4859",
"< c #7A7A68",
"1 c #A26A39",
"2 c #B4763C",
"3 c #BA7A3F",
"4 c #8E5D4E",
"5 c #855751",
"6 c #A46C42",
"7 c #AB7043",
"8 c #AE7243",
"9 c #B57740",
"0 c #D98E20",
"q c #D08837",
"w c #E9992E",
"e c #EE9C2C",
"r c #F19E24",
"t c #F8A225",
"y c #F8A325",
"u c #FAA425",
"i c #FCA526",
"p c #FDA626",
"a c #FEA626",
"s c #FFA726",
"d c #F5A02A",
"f c #F0AA3F",
"g c #A38752",
"h c #888775",
"j c #F4B751",
"k c #F1C274",
"l c #969582",
"z c #A3A28F",
"x c #B2B09C",
"c c #B2B19D",
"v c #B9B8A3",
"b c #C0BEAA",
"n c #EFCC8A",
"m c #C7C5B0",
"M c #CECCB6",
"N c #CECCB7",
"B c #E0D1AD",
"V c #E6D8B4",
"C c #ECDDB9",
"Z c #DCD9C2",
"A c #DCD9C3",
"S c #DDDAC5",
"D c #E3E1CB",
"F c #EAE7D1",
"G c None",
/* pixels */
"GGGFFFFFFFFFFFFFFFFGGG",
"GGGFFmzzzzzzzzzzmFFGGG",
"GGGFFbllllllllllbFFGGG",
"GGGFFFFFFFFFFFFFFFFGGG",
"GGGFFvhhhhhhhhhhvFFGGG",
"GGGFFNxxxxxxxxvxNFFGGG",
"GGGFFDAAAAZBBBBBVCCGGG",
"GGGFFx<<<<gttttttyyyyp",
"GGGFFSNNNNjruaaapppppp",
"GGjnnnnnnkyiaaaasssspp",
"itiyyyiytyypssaassssss",
"ppppppssppppsssassssss",
"ppppssssssppss*2psss55",
"ppspssssssppss.oqpss:;",
"sssssssssspppp.+$esp::",
"sssssssssspppp 2*=pp::",
"ssssssssssssss.8wO4s::",
"ssssssssssssss.8s3Xq::",
"ssssssssssppss.8ss,@;:",
"ssssssssspppss.8ssd$X:",
"rrrryrrrrrrrrr 6rrr2.-",
"00000000000000+10000>>"
};
