/* XPM */
char const *load_tec_xpm[] = {
/* columns rows colors chars-per-pixel */
"22 22 47 1 ",
"  c #301F6F",
". c #34226E",
"X c #3F2969",
"o c #4C3263",
"O c #533760",
"+ c #503464",
"@ c #583A61",
"# c #654253",
"$ c #6B4651",
"% c #7D5254",
"& c #7A7A68",
"* c #B9793F",
"= c #BC7B3E",
"- c #835652",
"; c #97634A",
": c #D98E20",
"> c #F19E24",
", c #F8A225",
"< c #F8A325",
"1 c #FAA425",
"2 c #FCA526",
"3 c #FDA626",
"4 c #FFA726",
"5 c #F0AA3F",
"6 c #A38752",
"7 c #888775",
"8 c #F4B751",
"9 c #F1C274",
"0 c #969582",
"q c #A3A28F",
"w c #B2B09C",
"e c #B2B19D",
"r c #B9B8A3",
"t c #C0BEAA",
"y c #EFCC8A",
"u c #C7C5B0",
"i c #CECCB6",
"p c #CECCB7",
"a c #E0D1AD",
"s c #E6D8B4",
"d c #ECDDB9",
"f c #DCD9C2",
"g c #DCD9C3",
"h c #DDDAC5",
"j c #E3E1CB",
"k c #EAE7D1",
"l c None",
/* pixels */
"lllkkkkkkkkkkkkkkkklll",
"lllkkuqqqqqqqqqqukklll",
"lllkkt0000000000tkklll",
"lllkkkkkkkkkkkkkkkklll",
"lllkkr7777777777rkklll",
"lllkkpwwwwwwwwrwpkklll",
"lllkkjggggfaaaaasddlll",
"lllkkw&&&&6,,,,,<<<<<<",
"lllkksiipp8>133344224<",
"ll8yyyyyy9<23333444444",
"<<2,<<<<,<<34433444444",
"4433324433334443444444",
"44444444444444-XXXXXX%",
"44444444444444=;;. ;;*",
"44444444444444444@+444",
"44444444444444444@+444",
"44444444444444444@+444",
"44444444444444444@+444",
"44444444444444444@+444",
"44444444444444444@+444",
">>>>>>>>>>>>>>>>>Oo>>>",
":::::::::::::::::$#:::"
};
