/* XPM */
char const *load_pl_xpm[] = {
/* columns rows colors chars-per-pixel */
"22 22 79 1 ",
"  c #01017F",
". c #05037E",
"X c #08057D",
"o c #0C087C",
"O c #110B7A",
"+ c #181078",
"@ c #2F1F6F",
"# c #201574",
"$ c #211674",
"% c #251873",
"& c #2D1D70",
"* c #31206E",
"= c #503464",
"- c #553860",
"; c #593A60",
": c #6E484F",
"> c #654253",
", c #6A455B",
"< c #714A58",
"1 c #724B58",
"2 c #7A7A68",
"3 c #BA7A2D",
"4 c #A46B37",
"5 c #B1743C",
"6 c #B6783A",
"7 c #BB7A3E",
"8 c #8B5B4F",
"9 c #875850",
"0 c #96624B",
"q c #AB7043",
"w c #AF7342",
"e c #B47641",
"r c #C98328",
"t c #D18924",
"y c #D98E20",
"u c #C7823A",
"i c #CB8538",
"p c #CC8638",
"a c #DB8F33",
"s c #E1932B",
"d c #EC9B2D",
"f c #EE9C2C",
"g c #F19E24",
"h c #F09D2C",
"j c #E29431",
"k c #F8A225",
"l c #F8A325",
"z c #FAA425",
"x c #FCA526",
"c c #FDA626",
"v c #FDA627",
"b c #FEA626",
"n c #FFA726",
"m c #F9A328",
"M c #F0AA3F",
"N c #A38752",
"B c #888775",
"V c #F4B751",
"C c #F1C274",
"Z c navy",
"A c #969582",
"S c #A3A28F",
"D c #B2B09C",
"F c #B2B19D",
"G c #B9B8A3",
"H c #C0BEAA",
"J c #EFCC8A",
"K c #C7C5B0",
"L c #CECCB6",
"P c #CECCB7",
"I c #E0D1AD",
"U c #E6D8B4",
"Y c #ECDDB9",
"T c #DCD9C2",
"R c #DCD9C3",
"E c #DDDAC5",
"W c #E3E1CB",
"Q c #EAE7D1",
"! c None",
/* pixels */
"!!!QQQQQQQQQQQQQQQQ!!!",
"!!!QQKSSSSSSSSSSKQQ!!!",
"!!!QQHAAAAAAAAAAHQQ!!!",
"!!!QQQQQQQQQQQQQQQQ!!!",
"!!!QQGBBBBBBBBBBGQQ!!!",
"!!!QQPDDDDDDDDGDPQQ!!!",
"!!!QQWRRRRTIIIIIUYY!!!",
"!!!QQD2222Nkkkkkkkkllz",
"!!!QQEPPPPMlzvncnnnccz",
"!!VJJJJJJCzzvvnnnvnnnn",
"kkkkkkkkkllvvvnnvvvkhn",
"nnnnnnnnvvvvfjznvvv@8n",
"nnnnnnnnnnhX   *qvv@8n",
"nnnnnnnnnnfZwfa1Z7v@8n",
"nnnnnnnnnnfZ7nnn#,n&8n",
"nnnnnnnnnnfZ7nnn+<n&8n",
"nnnnnnnnnnfZ0pe=.in&8n",
"nnnnnnnnnnfZoO%;unn&8n",
"nnnnnnnnnnfZ7nnnnnn&8n",
"nnnnnnnnnnfZ7nnnnnn@9n",
"ggggggggggsZ5gggggg-#6",
"yyyyyyyyyyt>3yyyyyyr:4"
};
