/* XPM */
char const *load_lay.xpm[] = {
/* columns rows colors chars-per-pixel */
"22 22 46 1 ",
"  c #271A72",
". c #442D62",
"X c #7F5348",
"o c #654259",
"O c #7A7A68",
"+ c #AC713F",
"@ c #80544F",
"# c #C78228",
"$ c #D98E20",
"% c #D38A2F",
"& c #CA8439",
"* c #D38A35",
"= c #DF9231",
"- c #F19E24",
"; c #E49530",
": c #F8A225",
"> c #F8A325",
", c #FAA425",
"< c #FCA526",
"1 c #FDA626",
"2 c #FFA726",
"3 c #F0AA3F",
"4 c #A38752",
"5 c #888775",
"6 c #F4B751",
"7 c #F1C274",
"8 c navy",
"9 c #969582",
"0 c #A3A28F",
"q c #B2B09C",
"w c #B2B19D",
"e c #B9B8A3",
"r c #C0BEAA",
"t c #EFCC8A",
"y c #C7C5B0",
"u c #CECCB6",
"i c #CECCB7",
"p c #E0D1AD",
"a c #E6D8B4",
"s c #ECDDB9",
"d c #DCD9C2",
"f c #DCD9C3",
"g c #DDDAC5",
"h c #E3E1CB",
"j c #EAE7D1",
"k c None",
/* pixels */
"kkkjjjjjjjjjjjjjjjjkkk",
"kkkjjy0000000000yjjkkk",
"kkkjjr9999999999rjjkkk",
"kkkjjjjjjjjjjjjjjjjkkk",
"kkkjje5555555555ejjkkk",
"kkkjjiqqqqqqqqeqijjkkk",
"kkkjjhffffdpppppasskkk",
"kkkjjqOOOO4:::::>>>>>>",
"kkkjjauuii6-,11122<<2<",
"kk6tttttt7><1111222222",
">><:>>>>:>>12211222222",
"22111<2211112221222222",
"222222222222222; *2222",
"222222222222222=8&2222",
"222222222222222=8&2222",
"222222222222222=8&2222",
"222222222222222= +2222",
"222222222222222=8&2222",
"222222222222222=8&2222",
"222222222222222=8&2222",
"---------------*8o@@X+",
"$$$$$$$$$$$$$$$#.....X"
};
