/* XPM */
char const *read_script_xpm[] = {
/* columns rows colors chars-per-pixel */
"22 22 79 1 ",
"  c #01017F",
". c #03027E",
"X c #05037E",
"o c #04037F",
"O c #08057D",
"+ c #0D087A",
"@ c #0E097A",
"# c #110B7A",
"$ c #1D1375",
"% c #2D1E6C",
"& c #2E1E6C",
"* c #251873",
"= c #2E1E70",
"- c #34226E",
"; c #3A266C",
": c #5F3E5E",
"> c #412B69",
", c #4A3066",
"< c #5C3C60",
"1 c #7F5348",
"2 c #6A455B",
"3 c #754D54",
"4 c #794F55",
"5 c #7C5154",
"6 c #7A7A68",
"7 c #B1743C",
"8 c #B4763C",
"9 c #BC7B38",
"0 c #B8783F",
"q c #8E5D41",
"w c #895A4B",
"e c #8A5A4C",
"r c #8D5C4E",
"t c #8A5A50",
"y c #98644B",
"u c #9A654A",
"i c #A86E45",
"p c #AD7143",
"a c #B07342",
"s c #D98E20",
"d c #C5813A",
"f c #C8833A",
"g c #C98439",
"h c #F19E24",
"j c #F39F2A",
"k c #F8A225",
"l c #F8A325",
"z c #FAA425",
"x c #FCA526",
"c c #FDA626",
"v c #FDA627",
"b c #FFA726",
"n c #F6A12A",
"m c #F8A229",
"M c #F0AA3F",
"N c #A38752",
"B c #888775",
"V c #F4B751",
"C c #F1C274",
"Z c navy",
"A c #969582",
"S c #A3A28F",
"D c #B2B09C",
"F c #B2B19D",
"G c #B9B8A3",
"H c #C0BEAA",
"J c #EFCC8A",
"K c #C7C5B0",
"L c #CECCB6",
"P c #CECCB7",
"I c #E0D1AD",
"U c #E6D8B4",
"Y c #ECDDB9",
"T c #DCD9C2",
"R c #DCD9C3",
"E c #DDDAC5",
"W c #E3E1CB",
"Q c #EAE7D1",
"! c None",
/* pixels */
"!!!QQQQQQQQQQQQQQQQ!!!",
"!!!QQKSSSSSSSSSSKQQ!!!",
"!!!QQHAAAAAAAAAAHQQ!!!",
"!!!QQQQQQQQQQQQQQQQ!!!",
"!!!QQGBBBBBBBBBBGQQ!!!",
"!!!QQPDDDDDDDDGDPQQ!!!",
"!!!QQWRRRRTIIIIIUYY!!!",
"!!!QQD6666Nkkkkkllllll",
"!!!QQTPPPPMlxbccbbxxbx",
"!!VJJJJJJCzzvvbbbbbbbb",
"llzzllzlkllvbbbbbbbbbb",
"bbbvvvbbvvvvbbbbbbbbbb",
"bbbbbbbbbbbbbbbby=#*<j",
"bbbbbbbbbbbbbbbpXrga5b",
"bbbbbbbbbbbbvvb2-bbbbb",
"bbbbbbbbbbbbbvveO0bbbb",
"bbbbbbbbbbbbbbbn,Z;ibb",
"bbbbbbbbbbbbbbbbbd:X>n",
"bbbbbbbbbbbbbbbbbbbf.y",
"bbbbbbbbbbbbbbbbbbbb$4",
"hhhhhhhhhhhhhhhwe893.7",
"sssssssssssssss1%++%qs"
};
