/* XPM */
char const *refresh.xpm[] = {
/* columns rows colors chars-per-pixel */
"22 22 77 1 ",
"  c #859800",
". c #849900",
"X c #859900",
"o c #859A00",
"O c #879B05",
"+ c #889C07",
"@ c #8A9D0A",
"# c #8A9D0B",
"$ c #8B9E0D",
"% c #8C9F0F",
"& c #8D9F10",
"* c #8DA011",
"= c #8EA012",
"- c #8FA115",
"; c #91A31A",
": c #92A41C",
"> c #93A51D",
", c #94A620",
"< c #95A722",
"1 c #97A825",
"2 c #97A826",
"3 c #9BAB2D",
"4 c #9CAC30",
"5 c #9FAF37",
"6 c #A1B03A",
"7 c #A2B13C",
"8 c #A3B23E",
"9 c #A8B649",
"0 c #ABB950",
"q c #AEBB56",
"w c #B1BD5B",
"e c #B1BE5C",
"r c #B3C061",
"t c #B5C164",
"y c #B6C266",
"u c #B6C267",
"i c #B8C36A",
"p c #B9C46C",
"a c #B9C56D",
"s c #BAC56F",
"d c #BBC670",
"f c #BBC671",
"g c #BCC773",
"h c #BEC977",
"j c #CBD392",
"k c #CED699",
"l c #CFD79A",
"z c #CFD79B",
"x c #D0D89D",
"c c #D1D99F",
"v c #D2D9A1",
"b c #D3DAA2",
"n c #D3DAA3",
"m c #D4DBA5",
"M c #D5DCA8",
"N c #D6DDA9",
"B c #D7DEAC",
"V c #DEE3B9",
"C c #DEE3BA",
"Z c #E0E5BE",
"A c #E0E5BF",
"S c #E1E6C0",
"D c #E1E6C1",
"F c #E8ECCF",
"G c #E9ECD0",
"H c #EAEDD3",
"J c #EAEED4",
"K c #ECEFD7",
"L c #ECEFD8",
"P c #EDF0D9",
"I c #EEF1DB",
"U c #F1F3E1",
"Y c #F1F3E2",
"T c #F2F4E4",
"R c #F3F5E5",
"E c #F3F5E6",
"W c None",
/* pixels */
"WWWWWWWWXXXXXXWWWWWWWW",
"WWWWWWXXXXXXXXXXWWWWWW",
"WWWWXXXXXXXXXXXXXXWWWW",
"WWWXXXXXXXXXXXXXXXXWWW",
"WWXXXXX%ynDClr$XXXXXWW",
"WWXXXXqPTEEETEP0XXXXWW",
"WXXXXpTEYcfpxYTTpXXXXW",
"WXXX6TEA,XXXX>CEE6*$XW",
"oXXXpPJ*XXXXXX*GEKP#XX",
"XXXXX#2XXXXXXOhJEEMXXX",
"XXX:M3XXXXXXXX:jTEyXXX",
"XXXrTTl,XXXXXXXX4B2XXX",
"XXXmTEKhOXXXXXX:+XXXXX",
"XX#KGTK*XXXXXX%GJrXXXX",
"WX##5TTD<XXXX>CTT8XXXW",
"WXXXXyTTYcfpcYEEgXXXXW",
"WWXXXX9GTEEEEEPeXXXXWW",
"WWXXXXX#evDDny*XXXXXWW",
"WWWXXXXXXXXXXXXXXXXWWW",
"WWWWXXXXXXXXXXXXXXWWWW",
"WWWWWWXXXXXXXXXXWWWWWW",
"WWWWWWWWXXXXXXWWWWWWWW"
};
