/* XPM */
char const *save_lay_xpm[] = {
/* columns rows colors chars-per-pixel */
"22 22 68 1 ",
"  c navy",
". c #020784",
"X c #020885",
"o c #050985",
"O c #060A85",
"+ c #06188D",
"@ c #071C90",
"# c #0A2496",
"$ c #0E349F",
"% c #1E339C",
"& c #1755B1",
"* c #1754B2",
"= c #1857B3",
"- c #3564B8",
"; c #3E69BA",
": c #497BC3",
"> c #268BD1",
", c #268BD2",
"< c #268CD1",
"1 c #258CD2",
"2 c #268CD2",
"3 c #298CD2",
"4 c #2A8DD3",
"5 c #2B8ED3",
"6 c #469CD9",
"7 c #479CD9",
"8 c #489DD9",
"9 c #55A4DC",
"0 c #55A5DC",
"q c #58A6DC",
"w c #5CA8DD",
"e c #5EA9DE",
"r c #5FA9DE",
"t c #5EAADE",
"y c #60AADD",
"u c #61ABDD",
"i c #61AADE",
"p c #62AADE",
"a c #64ADDF",
"s c #66ADDF",
"d c #67AEDF",
"f c #69AFDF",
"g c #66AEE0",
"h c #69AFE0",
"j c #6AB0E0",
"k c #6CB1E0",
"l c #6FB2E1",
"z c #71B3E1",
"x c #76B6E2",
"c c #82BDE5",
"v c #8BC1E7",
"b c #9CCAEA",
"n c #9DCBEA",
"m c #9ECBEB",
"M c #A1CDEB",
"N c #ACD3ED",
"B c #B6D8F0",
"V c #B9DAF0",
"C c #C3DFF2",
"Z c #C7E1F3",
"A c #CEE5F5",
"S c #CFE6F5",
"D c #D2E7F6",
"F c #D7EAF7",
"G c #D9EBF7",
"H c #DCECF8",
"J c #F0F7FC",
"K c None",
/* pixels */
"KKKuagddddffddddgugKKK",
"KKddddddddhhddddddaaKK",
"KKddddddccvvccddddddKK",
"KeddddddAJJJJAddddddeK",
"KuddddddAJJJJDfddddduK",
"KuddddddAJJJJDdddddduK",
"KugdddddAJJJJAdddddduK",
"KughddddAJJJJAddddddgK",
"KuddddddAJJJJAdddddduK",
"KuddfmmmHJJJJHmmnjdduK",
"KudddmJJJJJJJJJJMdddgK",
"KuddddNJJJJJJJJNddddeK",
"KughdddBJJJJJJVh%:ddaK",
"KedgdddfCJJJJChfO;ddeK",
"K9ddddddhDJJDhddO;dd9K",
"K7dddddddlGGzdddO;dd6K",
"K3edddddddxxddddO;ge3K",
"K158qeeeeeeeeeeeO-831K",
"K1,,,,,,,,,,,,,,.*,,,K",
"KK,,,,,,,,,,,,,,X*,,KK",
"KK,,,,,,,,,,,,,,X$=*KK",
"KKK,,,,,,,,,,,,,#++.  "
};
