<?xml version="1.0" encoding="UTF-8" standalone="no"?>
<svg
   xmlns:dc="http://purl.org/dc/elements/1.1/"
   xmlns:cc="http://creativecommons.org/ns#"
   xmlns:rdf="http://www.w3.org/1999/02/22-rdf-syntax-ns#"
   xmlns:svg="http://www.w3.org/2000/svg"
   xmlns="http://www.w3.org/2000/svg"
   xmlns:sodipodi="http://sodipodi.sourceforge.net/DTD/sodipodi-0.dtd"
   xmlns:inkscape="http://www.inkscape.org/namespaces/inkscape"
   viewBox="0 0 16 16"
   id="svg166"
   version="1.1"
   inkscape:version="0.91 r13725"
   sodipodi:docname="save_lay.svg">
  <metadata
     id="metadata182">
    <rdf:RDF>
      <cc:Work
         rdf:about="">
        <dc:format>image/svg+xml</dc:format>
        <dc:type
           rdf:resource="http://purl.org/dc/dcmitype/StillImage" />
      </cc:Work>
    </rdf:RDF>
  </metadata>
  <defs
     id="defs180" />
  <sodipodi:namedview
     pagecolor="#ffffff"
     bordercolor="#666666"
     borderopacity="1"
     objecttolerance="10"
     gridtolerance="10"
     guidetolerance="10"
     inkscape:pageopacity="0"
     inkscape:pageshadow="2"
     inkscape:window-width="776"
     inkscape:window-height="847"
     id="namedview178"
     showgrid="false"
     inkscape:zoom="14.75"
     inkscape:cx="8"
     inkscape:cy="8"
     inkscape:window-x="45"
     inkscape:window-y="24"
     inkscape:window-maximized="0"
     inkscape:current-layer="svg166" />
  <g
     transform="matrix(.77778 0 0 .8 -1.33333 -1.6)"
     style="fill-rule:evenodd"
     id="g168">
    <path
       d="m 7,2 10,0 c 3,0 4,1 4,4 l 0,12 c 0,3 -1,4 -4,4 L 7,22 C 4,22 3,21 3,18 L 3,6 C 3,3 4,2 7,2 z"
       style="fill:#268bd2"
       id="path170" />
    <path
       d="m 7,2 10,0 c 3,0 4,1 4,4 l 0,8 c 0,3 -1,4.25 -4,4.25 l -10,0 C 4,18.25 3,17 3,14 L 3,6 C 3,3 4,2 7,2 Z"
       style="fill:#fff;fill-opacity:0.3"
       id="path172" />
  </g>
  <g
     transform="translate(-4 -3)"
     style="color:#000"
     id="g174">
    <path
       d="m 16.5 10 -4.5 5 -4.5 -5 2.5 0 0 -5 4 0 0 5 z"
       style="fill:#fff;fill-opacity:0.9"
       id="path176" />
  </g>
  <text
     xml:space="preserve"
     style="font-style:normal;font-weight:normal;font-size:22.5px;line-height:125%;font-family:sans-serif;letter-spacing:0px;word-spacing:0px;fill:#000080;fill-opacity:1;stroke:none;stroke-width:1px;stroke-linecap:butt;stroke-linejoin:miter;stroke-opacity:1"
     x="10.820086"
     y="15.838984"
     id="text12010"
     sodipodi:linespacing="125%"><tspan
       sodipodi:role="line"
       id="tspan12012"
       x="10.820086"
       y="15.838984"
       style="font-style:normal;font-variant:normal;font-weight:normal;font-stretch:normal;font-size:10px;font-family:ubuntu;-inkscape-font-specification:ubuntu;fill:#000080">L</tspan></text>
</svg>
