/* XPM */
char const *save_net_xpm[] = {
/* columns rows colors chars-per-pixel */
"22 22 82 1 ",
"  c navy",
". c #000180",
"X c #000181",
"o c #010181",
"O c #020482",
"+ c #030582",
"@ c #06158C",
"# c #091088",
"$ c #071A8F",
"% c #0F198D",
"& c #071B91",
"* c #1A1F90",
"= c #092394",
"- c #0A2494",
"; c #0D2F9C",
": c #122997",
"> c #182896",
", c #172C98",
"< c #1A2E99",
"1 c #22399F",
"2 c #213BA0",
"3 c #1345A9",
"4 c #1A5FB8",
"5 c #3255AE",
"6 c #206CBF",
"7 c #426FBD",
"8 c #1E6DC1",
"9 c #1E6EC1",
"0 c #4073C0",
"q c #4677C1",
"w c #2588D1",
"e c #268BD2",
"r c #268CD1",
"t c #258CD2",
"y c #268CD2",
"u c #298CD2",
"i c #2B8ED3",
"p c #4481C9",
"a c #4E84C9",
"s c #479CD9",
"d c #489DD9",
"f c #5C9CD5",
"g c #55A5DC",
"h c #58A6DC",
"j c #5CA8DD",
"k c #5EA9DE",
"l c #5FA9DE",
"z c #5EAADE",
"x c #61A4DA",
"c c #60AADD",
"v c #61ABDD",
"b c #61AADE",
"n c #62AADE",
"m c #65ABDD",
"M c #64ADDF",
"N c #66ADDF",
"B c #67AEDF",
"V c #69AFDF",
"C c #66AEE0",
"Z c #6AB0E0",
"A c #6CB1E0",
"S c #6FB2E1",
"D c #71B3E1",
"F c #76B6E2",
"G c #82BDE5",
"H c #8BC1E7",
"J c #9CCAEA",
"K c #9DCBEA",
"L c #9ECBEB",
"P c #A1CDEB",
"I c #ACD3ED",
"U c #B6D8F0",
"Y c #C3DFF2",
"T c #C7E1F3",
"R c #CEE5F5",
"E c #CFE6F5",
"W c #D2E7F6",
"Q c #D7EAF7",
"! c #D9EBF7",
"~ c #DCECF8",
"^ c #F0F7FC",
"/ c None",
/* pixels */
"///vMCBBBBVVVMVNCBv///",
"//BBBBBBBBCAMVMVBBCM//",
"//BBBBBBGGHHGGVNBBBB//",
"/kBBBBBBR^^^^WMVBBBBk/",
"/vBBBBBBR^^^^WMNBBBBv/",
"/vBBBBBBR^^^^WNVBBBBv/",
"/vCVBBBBR^^^^RVNBBBCC/",
"/vCCBBBBR^^^^WMVBBBCv/",
"/vBBBVBVR^^^^RMNBBBBv/",
"/vBBCJJJ~^^^^~JPJVBBv/",
"/vBBVJ^^^^^^^^^^PBBBv/",
"/CBBBVI^^^^^^^^IBBBBv/",
"/vCCBBBU^^^^^^*7BBBB1 ",
"/kBVBBBVY^^^^Y++aBBB< ",
"/gBBBBBBVW^^WV+>#fBB,o",
"/sBBBBBBBD!~DNoq1>BB: ",
"/ukBBBBBBBFFBBoqx%5j- ",
"/tidhkkkkkkkkko0kpo6=o",
"/teeeeeeeeeeeeo4ee3@& ",
"//eeeeeeeeeeeeo4eee$  ",
"//eeeeeeeeeeeeo4eee9 o",
"///eeeeeeeeeee;9eee///"
};
