/* XPM */
char const *save_pl_xpm[] = {
/* columns rows colors chars-per-pixel */
"22 22 100 2 ",
"   c navy",
".  c #010381",
"X  c #010481",
"o  c #080D87",
"O  c #05118A",
"+  c #0A1189",
"@  c #0B158B",
"#  c #0E168B",
"$  c #07198F",
"%  c #061B8F",
"&  c #0E198D",
"*  c #0F198D",
"=  c #101B8F",
"-  c #1A1D8E",
";  c #1D1E8F",
":  c #081F93",
">  c #092496",
",  c #0A2596",
"<  c #0D2E9B",
"1  c #142393",
"2  c #162594",
"3  c #152695",
"4  c #132A99",
"5  c #192D99",
"6  c #182D9A",
"7  c #1A2F9B",
"8  c #0E339E",
"9  c #0F339E",
"0  c #1B309B",
"q  c #21389F",
"w  c #3D3F9F",
"e  c #0F38A1",
"r  c #223DA2",
"t  c #243DA2",
"y  c #263FA2",
"u  c #154CAC",
"i  c #1650AF",
"p  c #1753B1",
"a  c #195CB6",
"s  c #2945A5",
"d  c #2D4BA9",
"f  c #3054B0",
"g  c #385FB4",
"h  c #3E62B5",
"j  c #3D68B9",
"k  c #5254AA",
"l  c #505EB1",
"z  c #5D69B5",
"x  c #4372BE",
"c  c #6265B3",
"v  c #1F73C4",
"b  c #727EC0",
"n  c #268BD2",
"m  c #268CD1",
"M  c #258CD2",
"N  c #268CD2",
"B  c #298CD2",
"V  c #2B8ED3",
"C  c #548FCE",
"Z  c #4F95D3",
"A  c #479CD9",
"S  c #489DD9",
"D  c #5A99D4",
"F  c #55A5DC",
"G  c #58A6DC",
"H  c #5CA8DD",
"J  c #5EA9DE",
"K  c #5FA9DE",
"L  c #5EAADE",
"P  c #62A5DB",
"I  c #63A8DC",
"U  c #60AADD",
"Y  c #61ABDD",
"T  c #61AADE",
"R  c #62AADE",
"E  c #64ADDF",
"W  c #66ADDF",
"Q  c #67AEDF",
"!  c #69AFDF",
"~  c #66AEE0",
"^  c #6AB0E0",
"/  c #6CB1E0",
"(  c #6FB2E1",
")  c #76B6E2",
"_  c #888CC6",
"`  c #82BDE5",
"'  c #8BC1E7",
"]  c #9CCAEA",
"[  c #9DCBEA",
"{  c #9ECBEB",
"}  c #A1CDEB",
"|  c #ACD3ED",
" . c #B6D8F0",
".. c #C3DFF2",
"X. c #CEE5F5",
"o. c #CFE6F5",
"O. c #D7EAF7",
"+. c #DCECF8",
"@. c #F0F7FC",
"#. c None",
/* pixels */
"#.#.#.Y E ~ Q Q Q Q ! ! ! E ! W ~ Q Y #.#.#.",
"#.#.Q Q Q Q Q Q Q Q ~ / E ! E ! Q Q ~ E #.#.",
"#.#.Q Q Q Q Q Q ` ` ' ' ` ` ! W Q Q Q Q #.#.",
"#.J Q Q Q Q Q Q X.@.@.@.@.X.E ! Q Q Q Q J #.",
"#.Y Q Q Q Q Q Q X.@.@.@.@.X.W ! Q Q Q Q Y #.",
"#.Y Q Q Q Q Q Q X.@.@.@.@.O.! W Q Q Q Q Y #.",
"#.Y ~ ! Q Q Q Q X.@.@.@.@.X.W ! Q Q Q Q ~ #.",
"#.Y ~ ~ Q Q Q Q X.@.@.@.@.X.! E Q Q Q ~ Y #.",
"#.Y Q Q Q Q Q Q X.@.@.@.@.X.W ! Q Q Q Q Y #.",
"#.Y Q Q ! { { { +.@.@.@.@.+.{ { { ! Q Q Y #.",
"#.Y Q Q Q { @.@.@.@.@.@.@.@.@.@.} Q ! ! Y #.",
"#.Y Q Q Q Q | @.@.@.@.@.@.@.@.| Q Q Q x f #.",
"#.~ ~ Q Q Q Q  .@.@.@._ c k l j P Q Q t 0 #.",
"#.L Q Q Q Q Q ! ..@.@.; w z d # o C Q t 5 #.",
"#.F Q Q Q Q Q Q / X.@.; b / ~ I = q Q t 5 #.",
"#.A Q Q Q Q Q Q Q ( O.- h ! ! ~ t 3 Q s 4 #.",
"#.B J Q Q Q Q Q Q Q ) # g Q Q D + s ! r > #.",
"#.M V S G J J J J J J @ & 5 1 . 3 Z S 8 > #.",
"#.M n n n n n n n n n O < p a v n n n 8 : #.",
"#.#.n n n n n n n n n O u n n n n n n 8 $ #.",
"#.#.n n n n n n n n n O u n n n n n n e X #.",
"#.#.#.n n n n n n n n $ i n n n n n M #..   "
};
