/* XPM */
char const *view_rules.xpm[] = {
/* columns rows colors chars-per-pixel */
"22 22 97 2 ",
"   c #1F0775",
".  c #220873",
"X  c #230E79",
"o  c #3C3C62",
"O  c #3D3D7C",
"+  c #701957",
"@  c #711C59",
"#  c #471066",
"$  c #555555",
"%  c #5D5D5D",
"&  c #767676",
"*  c gray47",
"=  c #DC322F",
"-  c #CD2F35",
";  c #C32D38",
":  c #CD393D",
">  c #DD3734",
",  c #DA3C39",
"<  c #861E4F",
"1  c #DA4542",
"2  c #DB4946",
"3  c #E35957",
"4  c #E35A58",
"5  c #E35B59",
"6  c #E97E7C",
"7  c #E97F7D",
"8  c navy",
"9  c #040481",
"0  c #060682",
"q  c #151588",
"w  c #17178B",
"e  c #181889",
"r  c #272692",
"t  c #272793",
"y  c #392E90",
"u  c #3B3B96",
"i  c #333399",
"p  c #47479A",
"a  c #50509E",
"s  c #5858A1",
"d  c #7272AA",
"f  c #7F73B2",
"g  c #7979B8",
"h  c #905685",
"j  c #8E8E8E",
"k  c gray56",
"l  c #909090",
"z  c gray58",
"x  c #8686B2",
"c  c #8A8AB4",
"v  c #8B8BB4",
"b  c #A4A4A4",
"n  c #A5A5A5",
"m  c #A9A9A9",
"M  c #AAAAAA",
"N  c #ACACAC",
"B  c gray73",
"V  c #BCBCBC",
"C  c #E88B89",
"Z  c #F4BCBB",
"A  c #F4BDBC",
"S  c #8282C1",
"D  c #9C9CCE",
"F  c #B6B6C4",
"G  c gray78",
"H  c #C6C6CA",
"J  c #C8C8C8",
"K  c gray79",
"L  c #CACACA",
"P  c #CACACB",
"I  c #CBCBCB",
"U  c gray80",
"Y  c #CDCDCD",
"T  c gray84",
"R  c #DFDFDF",
"E  c #F3C5C4",
"W  c #F9DCDB",
"Q  c #F8DDDD",
"!  c #F9DFDE",
"~  c #E4E4E4",
"^  c gray90",
"/  c #E6E6E6",
"(  c #ECECEC",
")  c gray93",
"_  c #EEEEEE",
"`  c #EFEFEF",
"'  c #FAE1E1",
"]  c #FAE2E2",
"[  c #FAE3E2",
"{  c gray95",
"}  c #F6F6F6",
"|  c #FDF6F6",
" . c #F8F8F8",
".. c #FDFDFD",
"X. c #FEFEFE",
"o. c white",
"O. c None",
/* pixels */
"O.O.O.O.M M M M M M M M M M M M M M O.O.O.O.",
"O.O.O.O.M M M M M M M M M M M M M M O.O.O.O.",
"O.O.O.O.M M M M M M M M M M M M M M O.O.O.O.",
"O.O.O.O.M M M M M M M M M M M M M M O.O.O.O.",
"O.O.O.O.M M M N U / { { / U N M M M O.O.O.O.",
"O.O.O.O.V B K } X.X.X.X.X.X.} K B V O.O.O.O.",
"U U U U U T X.X.X.K b b K X.X.X.T U U U U U ",
"U U U U U  .X._ & $ $ % k l _ X. .U U U U U ",
"U U U U ~ X.X.& $ $ $ K _ _ k X.X.R U U U U ",
"U U U U _ X.K $ $ $ $ / _ _ k K X.{ U U U U ",
"U U U U } X.b $ $ $ $ z / K % b X.} U U U U ",
"U U U U ! X.b $ $ $ $ $ $ $ $ b X.! U U U U ",
"U U U U E X.U $ $ $ $ $ $ $ o u i y p v K U ",
"U U U U C X.X.* $ $ $ $ $ $ O q D h s 9 a U ",
"U U U U 2 [ X._ * $ $ $ $ * g t ' 2 U d 9 H ",
"U U U U 1 5 | X.X.U b b I X.S t 4 1 U v 8 F ",
"O.O.K U , = 3 ' X.X.X.X.X.X.f X > : x e q O.",
"O.O.O.O.> = = > 7 A ! W Z 7 @ 8 8   8 8 O.O.",
"O.O.O.O.= = = = = = = = = = + . ; ; 8 8 O.O.",
"O.O.O.O.= = = = = = = = = = + . > = O.8 O.O.",
"O.O.O.O.= = = = = = = = = = + . = = O.O.8 O.",
"O.O.O.O.= = = = = = = = = = < # = = O.O.8 O."
};
