<?xml version="1.0" encoding="UTF-8" standalone="no"?>
<svg
   xmlns:dc="http://purl.org/dc/elements/1.1/"
   xmlns:cc="http://creativecommons.org/ns#"
   xmlns:rdf="http://www.w3.org/1999/02/22-rdf-syntax-ns#"
   xmlns:svg="http://www.w3.org/2000/svg"
   xmlns="http://www.w3.org/2000/svg"
   xmlns:sodipodi="http://sodipodi.sourceforge.net/DTD/sodipodi-0.dtd"
   xmlns:inkscape="http://www.inkscape.org/namespaces/inkscape"
   width="16"
   height="16"
   viewBox="0 0 16 16"
   id="svg298"
   version="1.1"
   inkscape:version="0.91 r13725"
   sodipodi:docname="view_rules.svg">
  <metadata
     id="metadata322">
    <rdf:RDF>
      <cc:Work
         rdf:about="">
        <dc:format>image/svg+xml</dc:format>
        <dc:type
           rdf:resource="http://purl.org/dc/dcmitype/StillImage" />
      </cc:Work>
    </rdf:RDF>
  </metadata>
  <defs
     id="defs320" />
  <sodipodi:namedview
     pagecolor="#ffffff"
     bordercolor="#666666"
     borderopacity="1"
     objecttolerance="10"
     gridtolerance="10"
     guidetolerance="10"
     inkscape:pageopacity="0"
     inkscape:pageshadow="2"
     inkscape:window-width="776"
     inkscape:window-height="847"
     id="namedview318"
     showgrid="false"
     inkscape:zoom="14.75"
     inkscape:cx="6.0338983"
     inkscape:cy="8"
     inkscape:window-x="822"
     inkscape:window-y="24"
     inkscape:window-maximized="0"
     inkscape:current-layer="svg298" />
  <g
     style="fill-rule:evenodd"
     id="g300">
    <path
       style="fill:#aaa;fill-opacity:.94"
       d="m 4.6666667,0.00394322 6.6666663,0 C 13,0.00394322 13,-0.16265773 13,1.6699527 l 0,6.6640378 C 13,10 13,10 11.333333,10 L 4.6666667,10 C 3,10 3,10 3,8.3339905 L 3,1.6699527 C 3,0.00394322 3,0.00394322 4.6666667,0.00394322 z"
       id="path302" />
    <path
       style="fill:#ccc"
       d="M 1.6,4 14.4,4 C 16,4 16,4 16,5.6 l 0,4.8 C 16,12 16,12 14.4,12 L 1.6,12 C 0,12 0,12 0,10.4 L 0,5.6 C 0,4 0,4 1.6,4 z"
       id="path304" />
  </g>
  <g
     transform="matrix(.83333 0 0 .8 -2 -.8)"
     id="g306">
    <path
       style="fill:#dc322f"
       d="m 6,11 12,0 0,10 -12,0 z"
       id="path308" />
  </g>
  <g
     style="fill-rule:evenodd"
     transform="matrix(.83326 0 0 .83331 -1.99875 -1.99971)"
     id="g310">
    <path
       style="fill:#fff"
       d="m 19,12.5 a 5.5,6.5 0 1 1 -11,0 5.5,6.5 0 1 1 11,0 z"
       transform="matrix(1.091 0 0 .9231 -2.729 .4612)"
       id="path312" />
    <path
       style="fill:#555"
       d="m 19,12.5 a 5.5,6.5 0 1 1 -11,0 5.5,6.5 0 1 1 11,0 z"
       transform="matrix(.7273 0 0 .6154 2.181 4.308)"
       id="path314" />
    <path
       style="fill:#eee"
       d="m 19,12.5 a 5.5,6.5 0 1 1 -11,0 5.5,6.5 0 1 1 11,0 z"
       transform="matrix(.2727 0 0 .2308 9.818 7.615)"
       id="path316" />
  </g>
  <text
     xml:space="preserve"
     style="font-style:normal;font-weight:normal;font-size:22.5px;line-height:125%;font-family:sans-serif;letter-spacing:0px;word-spacing:0px;fill:#000080;fill-opacity:1;stroke:none;stroke-width:1px;stroke-linecap:butt;stroke-linejoin:miter;stroke-opacity:1"
     x="9.6949148"
     y="15.864406"
     id="text12010"
     sodipodi:linespacing="125%"><tspan
       sodipodi:role="line"
       id="tspan12012"
       x="9.6949148"
       y="15.864406"
       style="font-style:normal;font-variant:normal;font-weight:normal;font-stretch:normal;font-size:10px;font-family:ubuntu;-inkscape-font-specification:ubuntu;fill:#000080">R</tspan></text>
</svg>
