/* XPM */
char const *view_pref_xpm[] = {
/* columns rows colors chars-per-pixel */
"22 22 95 2 ",
"   c #1D0775",
".  c #200774",
"X  c #240873",
"o  c #6B1859",
"O  c #525256",
"+  c #555555",
"@  c #5D5D5D",
"#  c #767676",
"$  c #717179",
"%  c gray47",
"&  c #DC322F",
"*  c #CF2F34",
"=  c #D12F34",
"-  c #DD3734",
";  c #D03338",
":  c #DA3C39",
">  c #90214B",
",  c #A02445",
"<  c #A82642",
"1  c #A54162",
"2  c #DA4542",
"3  c #DB4946",
"4  c #E35A58",
"5  c #E35B59",
"6  c #E97E7C",
"7  c #E97F7D",
"8  c navy",
"9  c #010180",
"0  c #0C0C84",
"q  c #141487",
"w  c #1D1D8B",
"e  c #22228C",
"r  c #3C3C96",
"t  c #413492",
"y  c #4A4A9C",
"u  c #4D4D9D",
"i  c #52529F",
"p  c #4848A4",
"a  c #6161A5",
"s  c #6464A5",
"d  c #6B6BA8",
"f  c #7272AB",
"g  c #6363B1",
"h  c #885185",
"j  c #8E8E8E",
"k  c gray56",
"l  c #909090",
"z  c gray58",
"x  c #A4A4A4",
"c  c #A5A5A5",
"v  c #A9A9A9",
"b  c #AAAAAA",
"n  c #ACACAC",
"m  c gray73",
"M  c #BCBCBC",
"N  c #E88B89",
"B  c #F4BCBB",
"V  c #F4BDBC",
"C  c #B5A3C6",
"Z  c #B4B4C3",
"A  c #BFBFC7",
"S  c gray78",
"D  c #C0C0C8",
"F  c #C8C8C8",
"G  c gray79",
"H  c #CACACA",
"J  c #CBCBCB",
"K  c gray80",
"L  c #CDCDCD",
"P  c gray84",
"I  c #DFDFDF",
"U  c #F3C5C4",
"Y  c #EBD4DC",
"T  c #F9DCDB",
"R  c #F8DDDD",
"E  c #F9DFDE",
"W  c #E4E4E4",
"Q  c gray90",
"!  c #E6E6E6",
"~  c #E0E0E8",
"^  c #ECECEC",
"/  c gray93",
"(  c #EEEEEE",
")  c #EFEFEF",
"_  c #FAE2E2",
"`  c #FAE3E2",
"'  c gray95",
"]  c #F6F6F6",
"[  c #FDF6F6",
"{  c #F0F0F8",
"}  c #F8F8F8",
"|  c #FDFDFD",
" . c #FEFEFE",
".. c white",
"X. c None",
/* pixels */
"X.X.X.X.b b b b b b b b b b b b b b X.X.X.X.",
"X.X.X.X.b b b b b b b b b b b b b b X.X.X.X.",
"X.X.X.X.b b b b b b b b b b b b b b X.X.X.X.",
"X.X.X.X.b b b b b b b b b b b b b b X.X.X.X.",
"X.X.X.X.b b b n K ! ' ' ! K n b b b X.X.X.X.",
"X.X.X.X.M m G ]  . . . . . .] G m M X.X.X.X.",
"K K K K K P  . . .G x x G  . . .P K K K K K ",
"K K K K K }  .( # + + @ k l (  .} K K K K K ",
"K K K K W  . .# + + + G ( ( k  . .W G K K K ",
"K K K K (  .G + + + + ! ( ( k G  .) K K K K ",
"K K K K ]  .x + + + + z ! G @ x  .] K K K K ",
"K K G L E  .x + + + + + + + + x  .E K K K K ",
"K K K K U  .L + + + + + + + O i p t y f D K ",
"K K K K N  . .# + + + + + + $   g h s w q Z ",
"K K K K 3 `  ./ % + + + O % ~ 8 C 3 K D 0 a ",
"K K K K 2 5 [  .| L c c L | { 8 1 2 K K e u ",
"X.X.K K : & 4 _  . . . . . .Y 8 , : K d 8 r ",
"X.X.X.X.& & & - 7 V E T B 7 ; 8 . X 8 8 8 X.",
"X.X.X.X.& & & & & & & & & & = 8 o > X.X.X.X.",
"X.X.X.X.& & & & & & & & & & * 8 , & X.X.X.X.",
"X.X.X.X.& & & & & & & & & & * 8 , & X.X.X.X.",
"X.X.X.X.& & & & & & & & & & =   < & X.X.X.X."
};
