/* XPM */
char const *view_cellgen.xpm[] = {
/* columns rows colors chars-per-pixel */
"22 22 125 2 ",
"   c #01007F",
".  c #03017F",
"X  c #05057D",
"o  c #09027C",
"O  c #08027D",
"+  c #0A0A7B",
"@  c #0E0E79",
"#  c #08087C",
"$  c #1B0676",
"%  c #1C0676",
"&  c #120479",
"*  c #14087D",
"=  c #121277",
"-  c #12127F",
";  c #2F0B6F",
":  c #320B6E",
">  c #250873",
",  c #2B0A70",
"<  c #3A1270",
"1  c #3F1974",
"2  c #22226F",
"3  c #26266D",
"4  c #28286B",
"5  c #353565",
"6  c #363664",
"7  c #5F165C",
"8  c #6E1957",
"9  c #691859",
"0  c #6E1958",
"q  c #741B55",
"w  c #7E1D52",
"e  c #4D1163",
"r  c #4F1263",
"t  c #481065",
"y  c #501262",
"u  c #41415F",
"i  c #4B4B5A",
"p  c #525256",
"a  c #555555",
"s  c #5D5D5D",
"d  c #686879",
"f  c #767676",
"g  c gray47",
"h  c #AF283F",
"j  c #B6293D",
"k  c #DB322F",
"l  c #DC322F",
"z  c #C42D38",
"x  c #D73131",
"c  c #D53032",
"v  c #D93535",
"b  c #DA3C39",
"n  c #801D51",
"m  c #8C204D",
"M  c #9A2347",
"N  c #94224A",
"B  c #802B5E",
"V  c #A72643",
"C  c #AC2741",
"Z  c #AE4561",
"A  c #B9657E",
"S  c #DA4542",
"D  c #DB4946",
"F  c #E35B59",
"G  c #E97E7C",
"H  c navy",
"J  c #010180",
"K  c #060682",
"L  c #070782",
"P  c #42429E",
"I  c #4F4F9D",
"U  c #5858A0",
"Y  c #6969A7",
"T  c #7676AC",
"R  c #8E8E8E",
"E  c gray56",
"W  c #909090",
"Q  c gray58",
"!  c #9B9BBA",
"~  c #A4A4A4",
"^  c #A5A5A5",
"/  c #A9A9A9",
"(  c #AAAAAA",
")  c #ACACAC",
"_  c gray73",
"`  c #BCBCBC",
"'  c #E88A88",
"]  c #E88B89",
"[  c #F4BCBB",
"{  c #F4BDBC",
"}  c #9B9BCD",
"|  c gray78",
" . c #C8C8C8",
".. c gray79",
"X. c #CACACA",
"o. c #CBCBCB",
"O. c gray80",
"+. c #CDCDCD",
"@. c gray84",
"#. c #DFDFDF",
"$. c #F3C3C2",
"%. c #F3C5C4",
"&. c #E5CED9",
"*. c #F9DCDB",
"=. c #F8DDDD",
"-. c #F9DFDE",
";. c #C9C9E4",
":. c #D5CFE3",
">. c #E4E4E4",
",. c gray90",
"<. c #E6E6E6",
"1. c #E7E1EC",
"2. c #ECECEC",
"3. c gray93",
"4. c #EEEEEE",
"5. c #EFEFEF",
"6. c #FAE1E1",
"7. c #FAE3E2",
"8. c gray95",
"9. c #F6F6F6",
"0. c #F8F8F8",
"q. c #FDFDFD",
"w. c #FEFEFE",
"e. c white",
"r. c None",
/* pixels */
"r.r.r.r.( ( ( ( ( ( ( ( ( ( ( ( ( ( r.r.r.r.",
"r.r.r.r.( ( ( ( ( ( ( ( ( ( ( ( ( ( r.r.r.r.",
"r.r.r.r.( ( ( ( ( ( ( ( ( ( ( ( ( ( r.r.r.r.",
"r.r.r.r.( ( ( ( ( ( ( ( ( ( ( ( ( ( r.r.r.r.",
"r.r.r.r.( ( ( ) O.<.8.8.<.O.) ( ( ( r.r.r.r.",
"r.r.r.r.` _ ..9.w.w.w.w.w.w.9..._ ` r.r.r.r.",
"O.O.O.O.O.@.w.w.w...~ ~ ..w.w.w.@.O.O.O.O.O.",
"O.O.O.O.O.0.w.4.f a a s E W 4.w.0.O.O.O.O.O.",
"O.O.O.O.>.w.w.f a a a ..4.4.E w.w.#.O.O.O.O.",
"O.O.O.O.4.w...a a a a <.4.4.E ..w.8.O.O.O.O.",
"O.O.O.O.9.w.~ a a a a Q <...s ~ w.9.O.O.O.O.",
"O.O.O.O.-.w.~ a a a a a a a a ~ w.-.O.O.O.O.",
"O.O.O.O.%.w.O.a i 2 + X @ 3 a ..w.%.O.O.+.+.",
"O.O.O.O.] w.w.d # = 6 u 6 4 g w.w.] O.O.+.+.",
"O.O.O.O.D 7.w.P L a a a a g 4.w.&.w Y ! +.+.",
"O.O.O.O.S F 1.K } +.~ ~ O.w.w.:.* < I J T +.",
"r.r...O.b l Z J ;.w.w.w.w.w.6.t r S O.U L r.",
"r.r.r.r.x l V J A { -.*.{ G v   e 9 r.J J r.",
"r.r.r.r.l l z J m l l l l l c   t 9 J J J r.",
"r.r.r.r.l l x : ; x l x l l l % 0 x r.r.r.r.",
"r.r.r.r.l l l j o : M C N 9 l n o q r.r.r.r.",
"r.r.r.r.l l l x j t & o % y x l w > J J r.r."
};
