/* XPM */
char const *view_cir_xpm[] = {
/* columns rows colors chars-per-pixel */
"22 22 114 2 ",
"   c #00007F",
".  c #02027E",
"X  c #0E0E78",
"o  c #0D0D7A",
"O  c #191974",
"+  c #2E0A6F",
"@  c #240873",
"#  c #2E2E69",
"$  c #5E155D",
"%  c #6F1A57",
"&  c #60165C",
"*  c #691859",
"=  c #701957",
"-  c #7E1D52",
";  c #420F68",
":  c #471066",
">  c #4A1165",
",  c #4E1264",
"<  c #4C4C59",
"1  c #4D4D5A",
"2  c #515157",
"3  c #555555",
"4  c #5D5D5D",
"5  c #5E5E7A",
"6  c #696979",
"7  c #767676",
"8  c gray47",
"9  c #DB322F",
"0  c #DC322F",
"q  c #DD3633",
"w  c #DD3734",
"e  c #DA3C39",
"r  c #A12544",
"t  c #A92642",
"y  c #DA4542",
"u  c #DB4946",
"i  c #E35957",
"p  c #E35A58",
"a  c #E35B59",
"s  c #E97E7C",
"d  c #E97F7D",
"f  c navy",
"g  c #050582",
"h  c #060682",
"j  c #0C0A83",
"k  c #0A0A84",
"l  c #272789",
"z  c #27238E",
"x  c #212190",
"c  c #3E3E97",
"v  c #444499",
"b  c #5D4896",
"n  c #7F7F9C",
"m  c #6262A4",
"M  c #6F6FB7",
"N  c #A76486",
"B  c #8E8E8E",
"V  c gray56",
"C  c #909090",
"Z  c gray58",
"A  c #9C9CBA",
"S  c #A4A4A4",
"D  c #A5A5A5",
"F  c #A9A9A9",
"G  c #AAAAAA",
"H  c #ACACAC",
"J  c #A0A0BB",
"K  c gray73",
"L  c #BCBCBC",
"P  c #E88B89",
"I  c #F4BDBC",
"U  c #AEAEC1",
"Y  c #AFAFC1",
"T  c #AFAFC2",
"R  c #BABAC5",
"E  c #BCBCC6",
"W  c #BEBEC7",
"Q  c gray78",
"!  c #C2C2C9",
"~  c #C3C3C9",
"^  c #C8C8C8",
"/  c gray79",
"(  c #CACACA",
")  c #CACACB",
"_  c #CBCBCB",
"`  c gray80",
"'  c #CDCDCD",
"]  c gray84",
"[  c #DFDFDF",
"{  c #F3C5C4",
"}  c #F3D9DC",
"|  c #F9DCDB",
" . c #F9DFDE",
".. c #D1D1E8",
"X. c #E4E4E4",
"o. c gray90",
"O. c #E6E6E6",
"+. c #ECECEC",
"@. c gray93",
"#. c #EEEEEE",
"$. c #EFEFEF",
"%. c #FAE1E1",
"&. c #FAE2E2",
"*. c #FAE3E2",
"=. c gray95",
"-. c #F6F6F6",
";. c #FDF6F6",
":. c #F8F8F8",
">. c #F9F9FC",
",. c #FBFBFD",
"<. c #FDFDFD",
"1. c #FEFEFE",
"2. c white",
"3. c None",
/* pixels */
"3.3.3.3.G G G G G G G G G G G G G G 3.3.3.3.",
"3.3.3.3.G G G G G G G G G G G G G G 3.3.3.3.",
"3.3.3.3.G G G G G G G G G G G G G G 3.3.3.3.",
"3.3.3.3.G G G G G G G G G G G G G G 3.3.3.3.",
"3.3.3.3.G G G H ` O.=.=.O.` H G G G 3.3.3.3.",
"3.3.3.3.L K / -.1.1.1.1.1.1.-./ K L 3.3.3.3.",
"` ` ` ` ` ] 1.1.1./ S S / 1.1.1.] ` ` ` ` ` ",
"` ` ` ` ` :.1.#.7 3 3 4 V C #.1.:.` ` ` ` ` ",
"` ` ` ` X.1.1.7 3 3 3 / #.#.V 1.1.X./ ` ` ` ",
"` ` ` ` #.1./ 3 3 3 3 O.#.#.V / 1.$.` ` ` ` ",
"` ` ` ` -.1.S 3 3 3 3 Z O.Q 4 S 1.-.` ` ` ` ",
"` ` ` `  .1.S 3 3 3 3 3 3 3 1 n ..} ` ~ m R ",
"` ` ` ` { 1.` 3 3 3 3 3 < O   h g j A Y k A ",
"` ` ` ` P 1.1.8 3 3 3 2 o X 5 ,.,.N E ` / ` ",
"` ` ` ` u *.1.#.7 3 3 #   6 #.1.%.u ` ~ v T ",
"` ` ` ` y a ;.1.1.` S l v 1.1.;.p y ` E f J ",
"3.3./ ` e 0 i %.1.1.1.x M 1.%.i 0 e ` Y f 3.",
"3.3.3.3.q 0 0 w s I  .z b s q 0 0 0 3.3.f 3.",
"3.3.3.3.0 0 0 0 0 0 0 > @ 0 0 0 0 0 3.3.f 3.",
"3.3.3.3.0 0 0 0 0 0 0 r   - 0 0 0 0 3.3.f 3.",
"3.3.3.3.0 0 0 0 0 0 0 0 * f ; % & + 3.3.f 3.",
"3.3.3.3.0 0 0 0 0 9 0 0 q t $ > , % 3.3.f 3."
};
